<svg data-v-423bf9ae="" xmlns="http://www.w3.org/2000/svg" viewBox="0 0 464 112" class="iconLeft"><!----><!----><!----><g data-v-423bf9ae="" id="0745e006-4b1b-42f4-8cb6-5f1a6f466adb" fill="#3A1C18" transform="matrix(5.71973320392212,0,0,5.71973320392212,119.78723794937156,6.737635228263294)"><path d="M9.09 3.92L7.17 3.92L7.17 9.84C7.17 10.12 7.17 10.33 7.14 10.54C7.06 11.65 6.38 12.33 5.11 12.33C3.82 12.33 3.15 11.65 3.07 10.54C3.04 10.33 3.04 10.12 3.04 9.84L3.04 3.92L1.12 3.92L1.12 9.65C1.12 10.05 1.12 10.33 1.15 10.78C1.27 12.39 2.39 13.78 5.11 13.78C7.81 13.78 8.93 12.39 9.06 10.78C9.09 10.33 9.09 10.05 9.09 9.65ZM21.77 7.78C21.60 6.76 20.79 5.94 19.38 5.94C18.70 5.94 18.20 6.08 17.78 6.37L17.05 7.35C16.76 6.54 15.99 5.94 14.77 5.94C14.10 5.94 13.61 6.08 13.19 6.37L12.64 7.27L12.64 6.13L10.71 6.13L10.71 13.58L12.64 13.58L12.64 9.76C12.64 8.04 13.12 7.29 13.99 7.29C14.73 7.29 15.16 7.71 15.26 8.48C15.30 8.86 15.32 9.27 15.32 9.70L15.32 13.58L17.23 13.58L17.23 9.76C17.23 8.04 17.72 7.29 18.59 7.29C19.33 7.29 19.75 7.71 19.85 8.48C19.89 8.86 19.91 9.27 19.91 9.70L19.91 13.58L21.84 13.58L21.84 9.14C21.84 8.54 21.83 8.16 21.77 7.78ZM27.96 5.94C27.20 5.94 26.45 6.12 26.03 6.45L25.47 7.27L25.47 3.29L23.53 3.29L23.53 13.58L25.47 13.58L25.47 12.59L25.96 13.36C26.33 13.62 27.09 13.78 27.71 13.78C29.62 13.78 31.28 12.40 31.28 9.72C31.28 7.52 30.04 5.94 27.96 5.94ZM27.33 12.42C26.43 12.42 25.47 11.82 25.47 10.12L25.47 9.77C25.47 7.95 26.33 7.29 27.40 7.29C28.55 7.29 29.27 8.32 29.27 9.84C29.27 11.56 28.45 12.42 27.33 12.42ZM36.33 5.95C35.91 5.95 35.42 6.12 35.06 6.45L34.47 7.49L34.47 6.13L32.54 6.13L32.54 13.58L34.47 13.58L34.47 10.16C34.47 8.16 35.27 7.45 36.88 7.56L36.88 6.01C36.71 5.96 36.55 5.95 36.33 5.95ZM44.55 9.70C44.55 7.67 43.34 5.94 41.06 5.94C38.78 5.94 37.28 7.60 37.28 9.88C37.28 12.50 38.86 13.78 40.91 13.78C42.66 13.78 44.06 12.89 44.44 11.16L42.50 11.16C42.38 11.96 41.78 12.42 40.95 12.42C40.05 12.42 39.35 11.93 39.23 10.36L44.52 10.36C44.55 10.11 44.55 9.88 44.55 9.70ZM40.98 7.29C41.90 7.29 42.43 7.92 42.56 9.10L39.28 9.10C39.45 7.87 40.08 7.29 40.98 7.29ZM47.75 3.29L45.82 3.29L45.82 11.19C45.82 11.68 45.82 12.03 45.85 12.36C45.89 13.33 46.49 13.68 47.45 13.68C47.88 13.68 48.26 13.66 48.64 13.62L48.64 12.29C47.98 12.33 47.81 12.21 47.77 11.83C47.75 11.63 47.75 11.44 47.75 11.14ZM51.66 3.29L49.73 3.29L49.73 11.19C49.73 11.68 49.73 12.03 49.76 12.36C49.80 13.33 50.40 13.68 51.35 13.68C51.79 13.68 52.16 13.66 52.54 13.62L52.54 12.29C51.88 12.33 51.72 12.21 51.67 11.83C51.66 11.63 51.66 11.44 51.66 11.14ZM58.21 13.58L60.10 13.58C59.99 12.75 59.96 12.25 59.96 11.69L59.96 9.28C59.96 8.88 59.95 8.48 59.92 8.13C59.81 6.85 59.02 5.94 56.94 5.94C55.16 5.94 53.80 6.89 53.75 8.57L55.62 8.55C55.68 7.74 56.10 7.29 56.87 7.29C57.62 7.29 57.96 7.67 58.02 8.19C58.04 8.44 58.04 8.67 58.04 8.89L58.04 9.04L57.57 9.04C54.87 9.04 53.47 9.97 53.47 11.61C53.47 13.02 54.57 13.78 55.86 13.78C56.56 13.78 57.19 13.64 57.71 13.29L58.07 12.49ZM56.60 12.42C55.92 12.42 55.47 12.11 55.47 11.45C55.47 10.47 56.50 10.12 58.04 10.23L58.04 10.84C58.04 11.87 57.39 12.42 56.60 12.42Z"></path></g><defs data-v-423bf9ae=""><linearGradient data-v-423bf9ae="" gradientTransform="rotate(25)" id="43d7c41d-c041-4357-9227-17e5544bf3fa" x1="0%" y1="0%" x2="100%" y2="0%"><stop data-v-423bf9ae="" offset="0%" style="stop-color: rgb(255, 90, 32); stop-opacity: 1;"></stop><stop data-v-423bf9ae="" offset="100%" style="stop-color: rgb(255, 172, 199); stop-opacity: 1;"></stop></linearGradient></defs><g data-v-423bf9ae="" id="8af3baf6-905b-4d2e-9606-42f600596b1e" transform="matrix(1.1111111111111112,0,0,1.1111111111111112,0.9033304850260393,0.44444444444444287)" stroke="none" fill="url(#43d7c41d-c041-4357-9227-17e5544bf3fa)"><path d="M50.644 2.894v-.037a2.857 2.857 0 1 0-5.714 0v.04C21.211 4.301 2.131 22.916 0 46.433c2.26-4.089 6.613-6.862 11.616-6.862 5.404 0 10.043 3.236 12.112 7.872 2.068-4.636 6.708-7.872 12.112-7.872a13.19 13.19 0 0 1 9.09 3.624v41.092c0 5.514-4.486 10-10 10s-10-4.486-10-10a2.856 2.856 0 1 0-5.714 0C19.216 92.95 26.265 100 34.93 100s15.714-7.05 15.714-15.714V43.511a13.199 13.199 0 0 1 9.421-3.94c5.404 0 10.044 3.236 12.112 7.872 2.069-4.636 6.709-7.872 12.112-7.872 4.775 0 8.949 2.531 11.285 6.318C93.2 22.613 74.201 4.267 50.644 2.894z"></path></g><!----></svg>